<svg xmlns="http://www.w3.org/2000/svg"
     xmlns:xlink="http://www.w3.org/1999/xlink"
     width="300"
     height="300"
     viewBox="0 0 300 300"
>
    <style type="text/css">
        #snoozy {
            fill: none;
        }

        #snoozy path, #snoozy rect, #mouth {
            stroke: #4a4a4a;
            stroke-width: 3;
            stroke-linecap: round;
        }

        #snoozy circle, #open-mouth {
            fill: #4a4a4a;
        }

        #mouth {
            transform: translate(0px,150px);
            fill: none;
            animation: mouth 6s linear infinite;
        }

        #zee1, #zee2, #zee3 {
            fill: #4a4a4a;
            stroke: #4a4a4a;
            stroke-width: 0;
            opacity: 0;
        }

        #zee1 {
            animation: snore1 6s cubic-bezier(0.165, 0.84, 0.44, 1) infinite;
        }

        #zee2 {
            animation: snore2 6s cubic-bezier(0.165, 0.84, 0.44, 1) infinite;
        }

        #zee3 {
            animation: snore3 6s cubic-bezier(0.165, 0.84, 0.44, 1) infinite;
        }

        @keyframes mouth {
            0% {
                fill: #4a4a4a;
            }
            20% {
                fill: none;
            }
        }

        @keyframes snore1 {
            0% {
                transform: translate(100px,215px);
                opacity: 1;
            }
            80% {
                transform: translate(240px,145px) scale(6);
                stroke-width: 3;
                opacity: 0;
            }
        }

        @keyframes snore2 {
            0% {
                opacity: 0;
            }
            3% {
                transform: translate(100px,215px);
                opacity: 0;
            }
            4% {
                opacity: 1;
            }
            85% {
                transform: translate(235px,140px) scale(6);
                stroke-width: 3;
                opacity: 0;
            }
        }

        @keyframes snore3 {
            0% {
                opacity: 0;
            }
            7% {
                transform: translate(100px,215px);
                opacity: 0;
            }
            8% {
                opacity: 1;
            }
            90% {
                transform: translate(230px,135px) scale(6);
                stroke-width: 3;
                opacity: 0;
            }
        }
    </style>
    <defs>
        <path id="zee" opacity="inherit" stroke-width="inherit" d="m-3.43884,-4.09562c-0.76424,0 -1.31116,-0.41883 -1.31116,-1.20191c0,-0.69257 0.65617,-1.20247 1.31116,-1.20247l7.15856,0c0.96575,0 1.53028,0.5463 1.53028,1.31178c0,0.3642 -0.12748,0.7284 -0.3642,1.0562l-5.86502,8.1965l4.78997,0c0.72902,0 1.27476,0.41882 1.27476,1.1655c0,0.69201 -0.58276,1.23831 -1.27476,1.23831l-6.66684,0c-1.05564,0 -1.52909,-0.67378 -1.52909,-1.31116c0,-0.40065 0.16388,-0.85588 0.40003,-1.1655l5.82919,-8.08725l-5.28288,0z"/>
        <g id="snoozy">
            <rect rx="4" height="127" width="177" x="1.5" y="1.5" />
            <path d="m39.75007,57.0001c1.41334,4.02187 5.37168,6.03281 11.87504,6.03281c6.50335,0 10.4617,-2.01094 11.87504,-6.03281"/>
            <path d="m125.75001,57.0001c1.35383,4.02187 5.14551,6.03281 11.37505,6.03281c6.22954,0 10.02122,-2.01094 11.37505,-6.03281"/>
            <path d="m1.5,23.25l177,0" stroke-linecap="square"/>
            <circle cx="38.5" cy="12.5" r="3.5"/>
            <circle cx="25.5" cy="12.5" r="3.5"/>
            <circle cx="12.5" cy="12.5" r="3.5"/>
        </g>
    </defs>
    <use xlink:href="#snoozy" x="0" y="150" />
    <path id="mouth" d="m89.25006,67.25009c0.83312,3.33333 3.16645,5 7,5c3.83355,0 6.16688,-1.66667 7,-5" />
    <path id="zee1" d="m-3.43884,-4.09562c-0.76424,0 -1.31116,-0.41883 -1.31116,-1.20191c0,-0.69257 0.65617,-1.20247 1.31116,-1.20247l7.15856,0c0.96575,0 1.53028,0.5463 1.53028,1.31178c0,0.3642 -0.12748,0.7284 -0.3642,1.0562l-5.86502,8.1965l4.78997,0c0.72902,0 1.27476,0.41882 1.27476,1.1655c0,0.69201 -0.58276,1.23831 -1.27476,1.23831l-6.66684,0c-1.05564,0 -1.52909,-0.67378 -1.52909,-1.31116c0,-0.40065 0.16388,-0.85588 0.40003,-1.1655l5.82919,-8.08725l-5.28288,0z"/>
    <path id="zee2" d="m-3.43884,-4.09562c-0.76424,0 -1.31116,-0.41883 -1.31116,-1.20191c0,-0.69257 0.65617,-1.20247 1.31116,-1.20247l7.15856,0c0.96575,0 1.53028,0.5463 1.53028,1.31178c0,0.3642 -0.12748,0.7284 -0.3642,1.0562l-5.86502,8.1965l4.78997,0c0.72902,0 1.27476,0.41882 1.27476,1.1655c0,0.69201 -0.58276,1.23831 -1.27476,1.23831l-6.66684,0c-1.05564,0 -1.52909,-0.67378 -1.52909,-1.31116c0,-0.40065 0.16388,-0.85588 0.40003,-1.1655l5.82919,-8.08725l-5.28288,0z"/>
    <path id="zee3" d="m-3.43884,-4.09562c-0.76424,0 -1.31116,-0.41883 -1.31116,-1.20191c0,-0.69257 0.65617,-1.20247 1.31116,-1.20247l7.15856,0c0.96575,0 1.53028,0.5463 1.53028,1.31178c0,0.3642 -0.12748,0.7284 -0.3642,1.0562l-5.86502,8.1965l4.78997,0c0.72902,0 1.27476,0.41882 1.27476,1.1655c0,0.69201 -0.58276,1.23831 -1.27476,1.23831l-6.66684,0c-1.05564,0 -1.52909,-0.67378 -1.52909,-1.31116c0,-0.40065 0.16388,-0.85588 0.40003,-1.1655l5.82919,-8.08725l-5.28288,0z"/>
</svg>